<mxfile host="drawio.corp.amazon.com" modified="2025-07-21T07:32:38.886Z" agent="Mozilla/5.0 (Macintosh; Intel Mac OS X 10.15; rv:139.0) Gecko/20100101 Firefox/139.0" etag="oh-5ebRlSzUMi2yGdTVN" version="21.7.4" type="device">
  <diagram name="Page-1" id="xvoBK_VZYoZHiSkHvNR2">
    <mxGraphModel dx="1469" dy="970" grid="1" gridSize="10" guides="1" tooltips="1" connect="1" arrows="1" fold="1" page="1" pageScale="1" pageWidth="1169" pageHeight="827" math="0" shadow="0">
      <root>
        <mxCell id="0" />
        <mxCell id="1" parent="0" />
        <mxCell id="5HzDjwi24aiLYZOdmJjg-2" value="" style="rounded=0;whiteSpace=wrap;html=1;fillColor=#ffe6cc;strokeColor=#d79b00;" parent="1" vertex="1">
          <mxGeometry x="200" y="65" width="720" height="340" as="geometry" />
        </mxCell>
        <mxCell id="2nmGZ_M7Z3MYa-DBmGAj-7" value="" style="rounded=0;whiteSpace=wrap;html=1;fillColor=#e1d5e7;strokeColor=#9673a6;" parent="1" vertex="1">
          <mxGeometry x="190" y="419" width="720" height="381" as="geometry" />
        </mxCell>
        <mxCell id="2nmGZ_M7Z3MYa-DBmGAj-8" value="1. Foundation" style="rounded=1;whiteSpace=wrap;html=1;fillColor=#f5f5f5;fontColor=#333333;strokeColor=#666666;" parent="1" vertex="1">
          <mxGeometry x="424.5" y="423" width="110" height="30" as="geometry" />
        </mxCell>
        <mxCell id="2nmGZ_M7Z3MYa-DBmGAj-15" value="Amazon CloudFront Resources" style="outlineConnect=0;gradientColor=none;html=1;whiteSpace=wrap;fontSize=12;fontStyle=0;strokeColor=#000614;fillColor=none;verticalAlign=top;align=center;fontColor=#879196;dashed=1;spacingTop=3;spacingLeft=25;" parent="1" vertex="1">
          <mxGeometry x="560" y="476.5" width="289.5" height="183.5" as="geometry" />
        </mxCell>
        <mxCell id="2nmGZ_M7Z3MYa-DBmGAj-17" value="&lt;div&gt;- MediaTailor Manifest Origin Request Policy&lt;/div&gt;&lt;div&gt;- MediaTailor Ad Redirect Origin Request Policy&lt;/div&gt;&lt;div&gt;&lt;div&gt;- MediaPackage Manifest Cache Policy&lt;/div&gt;&lt;/div&gt;&lt;div&gt;- Post Response Headers Policy&lt;/div&gt;&lt;div&gt;- Default Response Header Policy&lt;br&gt;&lt;/div&gt;&lt;div&gt;&lt;br&gt;&lt;/div&gt;" style="rounded=0;whiteSpace=wrap;html=1;verticalAlign=top;align=left;fillColor=none;strokeColor=none;" parent="1" vertex="1">
          <mxGeometry x="570" y="518.5" width="279.5" height="142.5" as="geometry" />
        </mxCell>
        <mxCell id="2nmGZ_M7Z3MYa-DBmGAj-18" value="S3 Log Bucket" style="sketch=0;outlineConnect=0;fontColor=#232F3E;gradientColor=none;fillColor=#7AA116;strokeColor=none;dashed=0;verticalLabelPosition=bottom;verticalAlign=top;align=center;html=1;fontSize=12;fontStyle=0;aspect=fixed;pointerEvents=1;shape=mxgraph.aws4.bucket;" parent="1" vertex="1">
          <mxGeometry x="416.25" y="681" width="75" height="78" as="geometry" />
        </mxCell>
        <mxCell id="2nmGZ_M7Z3MYa-DBmGAj-19" value="MediaLiveAccessRole" style="sketch=0;outlineConnect=0;fontColor=#232F3E;gradientColor=none;fillColor=#DD344C;strokeColor=none;dashed=0;verticalLabelPosition=bottom;verticalAlign=top;align=center;html=1;fontSize=12;fontStyle=0;aspect=fixed;pointerEvents=1;shape=mxgraph.aws4.role;" parent="1" vertex="1">
          <mxGeometry x="283" y="698" width="78" height="44" as="geometry" />
        </mxCell>
        <mxCell id="2nmGZ_M7Z3MYa-DBmGAj-25" value="" style="sketch=0;outlineConnect=0;fontColor=#232F3E;gradientColor=none;fillColor=#E7157B;strokeColor=none;dashed=0;verticalLabelPosition=bottom;verticalAlign=top;align=center;html=1;fontSize=12;fontStyle=0;aspect=fixed;pointerEvents=1;shape=mxgraph.aws4.stack;" parent="1" vertex="1">
          <mxGeometry x="190" y="419" width="39" height="38" as="geometry" />
        </mxCell>
        <mxCell id="2nmGZ_M7Z3MYa-DBmGAj-28" value="devices" style="sketch=0;outlineConnect=0;gradientColor=none;fontColor=#545B64;strokeColor=none;fillColor=#879196;dashed=0;verticalLabelPosition=bottom;verticalAlign=top;align=center;html=1;fontSize=12;fontStyle=0;aspect=fixed;shape=mxgraph.aws4.illustration_devices;pointerEvents=1" parent="1" vertex="1">
          <mxGeometry x="970" y="227.5" width="100" height="73" as="geometry" />
        </mxCell>
        <mxCell id="2nmGZ_M7Z3MYa-DBmGAj-30" value="" style="sketch=0;points=[[0,0,0],[0.25,0,0],[0.5,0,0],[0.75,0,0],[1,0,0],[0,1,0],[0.25,1,0],[0.5,1,0],[0.75,1,0],[1,1,0],[0,0.25,0],[0,0.5,0],[0,0.75,0],[1,0.25,0],[1,0.5,0],[1,0.75,0]];outlineConnect=0;fontColor=#232F3E;fillColor=#8C4FFF;strokeColor=#ffffff;dashed=0;verticalLabelPosition=bottom;verticalAlign=top;align=center;html=1;fontSize=12;fontStyle=0;aspect=fixed;shape=mxgraph.aws4.resourceIcon;resIcon=mxgraph.aws4.cloudfront;" parent="1" vertex="1">
          <mxGeometry x="560" y="476.5" width="39" height="39" as="geometry" />
        </mxCell>
        <mxCell id="2nmGZ_M7Z3MYa-DBmGAj-1" value="" style="rounded=0;whiteSpace=wrap;html=1;fillColor=#ffe6cc;strokeColor=#d79b00;" parent="1" vertex="1">
          <mxGeometry x="190" y="55" width="720" height="340" as="geometry" />
        </mxCell>
        <mxCell id="2nmGZ_M7Z3MYa-DBmGAj-2" value="2. Event Group" style="rounded=1;whiteSpace=wrap;html=1;fillColor=#f5f5f5;fontColor=#333333;strokeColor=#666666;" parent="1" vertex="1">
          <mxGeometry x="424.5" y="59" width="110" height="30" as="geometry" />
        </mxCell>
        <mxCell id="2nmGZ_M7Z3MYa-DBmGAj-6" value="Amazon CloudFront&lt;br&gt;Distribution" style="sketch=0;points=[[0,0,0],[0.25,0,0],[0.5,0,0],[0.75,0,0],[1,0,0],[0,1,0],[0.25,1,0],[0.5,1,0],[0.75,1,0],[1,1,0],[0,0.25,0],[0,0.5,0],[0,0.75,0],[1,0.25,0],[1,0.5,0],[1,0.75,0]];outlineConnect=0;fontColor=#232F3E;fillColor=#8C4FFF;strokeColor=#ffffff;dashed=0;verticalLabelPosition=bottom;verticalAlign=top;align=center;html=1;fontSize=12;fontStyle=0;aspect=fixed;shape=mxgraph.aws4.resourceIcon;resIcon=mxgraph.aws4.cloudfront;" parent="1" vertex="1">
          <mxGeometry x="795" y="225" width="78" height="78" as="geometry" />
        </mxCell>
        <mxCell id="2nmGZ_M7Z3MYa-DBmGAj-10" value="" style="sketch=0;outlineConnect=0;fontColor=#232F3E;gradientColor=none;fillColor=#E7157B;strokeColor=none;dashed=0;verticalLabelPosition=bottom;verticalAlign=top;align=center;html=1;fontSize=12;fontStyle=0;aspect=fixed;pointerEvents=1;shape=mxgraph.aws4.stack;" parent="1" vertex="1">
          <mxGeometry x="190" y="55" width="39" height="38" as="geometry" />
        </mxCell>
        <mxCell id="2nmGZ_M7Z3MYa-DBmGAj-3" value="AWS Elemental MediaPackage&lt;br&gt;Channel Group" style="outlineConnect=0;gradientColor=none;html=1;whiteSpace=wrap;fontSize=12;fontStyle=0;strokeColor=#000614;fillColor=none;verticalAlign=top;align=center;fontColor=#879196;dashed=1;spacingTop=3;spacingLeft=43;" parent="1" vertex="1">
          <mxGeometry x="380" y="110" width="237.75" height="270" as="geometry" />
        </mxCell>
        <mxCell id="2nmGZ_M7Z3MYa-DBmGAj-4" value="" style="sketch=0;points=[[0,0,0],[0.25,0,0],[0.5,0,0],[0.75,0,0],[1,0,0],[0,1,0],[0.25,1,0],[0.5,1,0],[0.75,1,0],[1,1,0],[0,0.25,0],[0,0.5,0],[0,0.75,0],[1,0.25,0],[1,0.5,0],[1,0.75,0]];outlineConnect=0;fontColor=#232F3E;fillColor=#ED7100;strokeColor=#ffffff;dashed=0;verticalLabelPosition=bottom;verticalAlign=top;align=center;html=1;fontSize=12;fontStyle=0;aspect=fixed;shape=mxgraph.aws4.resourceIcon;resIcon=mxgraph.aws4.elemental_mediapackage;" parent="1" vertex="1">
          <mxGeometry x="380" y="110" width="39" height="39" as="geometry" />
        </mxCell>
        <mxCell id="2nmGZ_M7Z3MYa-DBmGAj-32" value="" style="rounded=0;whiteSpace=wrap;html=1;fillColor=#dae8fc;strokeColor=#6c8ebf;" parent="1" vertex="1">
          <mxGeometry x="227" y="194" width="380" height="180" as="geometry" />
        </mxCell>
        <mxCell id="2nmGZ_M7Z3MYa-DBmGAj-31" value="" style="rounded=0;whiteSpace=wrap;html=1;fillColor=#dae8fc;strokeColor=#6c8ebf;" parent="1" vertex="1">
          <mxGeometry x="217" y="185" width="380" height="180" as="geometry" />
        </mxCell>
        <mxCell id="2nmGZ_M7Z3MYa-DBmGAj-33" value="" style="group" parent="1" vertex="1" connectable="0">
          <mxGeometry x="207" y="176" width="380" height="180" as="geometry" />
        </mxCell>
        <mxCell id="2nmGZ_M7Z3MYa-DBmGAj-13" value="" style="sketch=0;points=[[0,0,0],[0.25,0,0],[0.5,0,0],[0.75,0,0],[1,0,0],[0,1,0],[0.25,1,0],[0.5,1,0],[0.75,1,0],[1,1,0],[0,0.25,0],[0,0.5,0],[0,0.75,0],[1,0.25,0],[1,0.5,0],[1,0.75,0]];outlineConnect=0;fontColor=#232F3E;fillColor=#8C4FFF;strokeColor=#ffffff;dashed=0;verticalLabelPosition=bottom;verticalAlign=top;align=center;html=1;fontSize=12;fontStyle=0;aspect=fixed;shape=mxgraph.aws4.resourceIcon;resIcon=mxgraph.aws4.cloudfront;" parent="2nmGZ_M7Z3MYa-DBmGAj-33" vertex="1">
          <mxGeometry x="290" y="55.86167585027552" width="39" height="39" as="geometry" />
        </mxCell>
        <mxCell id="2nmGZ_M7Z3MYa-DBmGAj-20" value="" style="rounded=0;whiteSpace=wrap;html=1;fillColor=#dae8fc;strokeColor=#6c8ebf;" parent="2nmGZ_M7Z3MYa-DBmGAj-33" vertex="1">
          <mxGeometry width="380" height="180" as="geometry" />
        </mxCell>
        <mxCell id="2nmGZ_M7Z3MYa-DBmGAj-22" value="" style="sketch=0;outlineConnect=0;fontColor=#232F3E;gradientColor=none;fillColor=#E7157B;strokeColor=none;dashed=0;verticalLabelPosition=bottom;verticalAlign=top;align=center;html=1;fontSize=12;fontStyle=0;aspect=fixed;pointerEvents=1;shape=mxgraph.aws4.stack;" parent="2nmGZ_M7Z3MYa-DBmGAj-33" vertex="1">
          <mxGeometry width="39" height="38" as="geometry" />
        </mxCell>
        <mxCell id="2nmGZ_M7Z3MYa-DBmGAj-23" value="AWS Elemental&lt;br&gt;MediaLive" style="sketch=0;points=[[0,0,0],[0.25,0,0],[0.5,0,0],[0.75,0,0],[1,0,0],[0,1,0],[0.25,1,0],[0.5,1,0],[0.75,1,0],[1,1,0],[0,0.25,0],[0,0.5,0],[0,0.75,0],[1,0.25,0],[1,0.5,0],[1,0.75,0]];outlineConnect=0;fontColor=#232F3E;fillColor=#ED7100;strokeColor=#ffffff;dashed=0;verticalLabelPosition=bottom;verticalAlign=top;align=center;html=1;fontSize=12;fontStyle=0;aspect=fixed;shape=mxgraph.aws4.resourceIcon;resIcon=mxgraph.aws4.elemental_medialive;" parent="2nmGZ_M7Z3MYa-DBmGAj-33" vertex="1">
          <mxGeometry x="48" y="49.02147064411933" width="78" height="78" as="geometry" />
        </mxCell>
        <mxCell id="2nmGZ_M7Z3MYa-DBmGAj-24" value="AWS Elemental&lt;br&gt;MediaPackage&lt;br&gt;Channel" style="sketch=0;points=[[0,0,0],[0.25,0,0],[0.5,0,0],[0.75,0,0],[1,0,0],[0,1,0],[0.25,1,0],[0.5,1,0],[0.75,1,0],[1,1,0],[0,0.25,0],[0,0.5,0],[0,0.75,0],[1,0.25,0],[1,0.5,0],[1,0.75,0]];outlineConnect=0;fontColor=#232F3E;fillColor=#ED7100;strokeColor=#ffffff;dashed=0;verticalLabelPosition=bottom;verticalAlign=top;align=center;html=1;fontSize=12;fontStyle=0;aspect=fixed;shape=mxgraph.aws4.resourceIcon;resIcon=mxgraph.aws4.elemental_mediapackage;" parent="2nmGZ_M7Z3MYa-DBmGAj-33" vertex="1">
          <mxGeometry x="260" y="49.02147064411933" width="78" height="78" as="geometry" />
        </mxCell>
        <mxCell id="2nmGZ_M7Z3MYa-DBmGAj-26" style="edgeStyle=orthogonalEdgeStyle;rounded=0;orthogonalLoop=1;jettySize=auto;html=1;" parent="2nmGZ_M7Z3MYa-DBmGAj-33" source="2nmGZ_M7Z3MYa-DBmGAj-23" target="2nmGZ_M7Z3MYa-DBmGAj-24" edge="1">
          <mxGeometry relative="1" as="geometry" />
        </mxCell>
        <mxCell id="2nmGZ_M7Z3MYa-DBmGAj-21" value="3. Event" style="rounded=1;whiteSpace=wrap;html=1;fillColor=#f5f5f5;fontColor=#333333;strokeColor=#666666;" parent="2nmGZ_M7Z3MYa-DBmGAj-33" vertex="1">
          <mxGeometry x="135" y="3.724911747352444" width="110" height="34.20102603078093" as="geometry" />
        </mxCell>
        <mxCell id="2nmGZ_M7Z3MYa-DBmGAj-27" style="edgeStyle=orthogonalEdgeStyle;rounded=0;orthogonalLoop=1;jettySize=auto;html=1;exitX=1;exitY=0.25;exitDx=0;exitDy=0;exitPerimeter=0;entryX=0;entryY=0.25;entryDx=0;entryDy=0;entryPerimeter=0;" parent="1" source="2nmGZ_M7Z3MYa-DBmGAj-24" target="2nmGZ_M7Z3MYa-DBmGAj-6" edge="1">
          <mxGeometry relative="1" as="geometry" />
        </mxCell>
        <mxCell id="2nmGZ_M7Z3MYa-DBmGAj-29" style="edgeStyle=orthogonalEdgeStyle;rounded=0;orthogonalLoop=1;jettySize=auto;html=1;" parent="1" source="2nmGZ_M7Z3MYa-DBmGAj-6" target="2nmGZ_M7Z3MYa-DBmGAj-28" edge="1">
          <mxGeometry relative="1" as="geometry">
            <mxPoint x="978" y="264.5" as="targetPoint" />
          </mxGeometry>
        </mxCell>
        <mxCell id="N5E-a2_garC34fSIHxFX-2" style="edgeStyle=orthogonalEdgeStyle;rounded=0;orthogonalLoop=1;jettySize=auto;html=1;entryX=0;entryY=0.75;entryDx=0;entryDy=0;entryPerimeter=0;exitX=1;exitY=0.25;exitDx=0;exitDy=0;exitPerimeter=0;" parent="1" source="N5E-a2_garC34fSIHxFX-1" target="2nmGZ_M7Z3MYa-DBmGAj-6" edge="1">
          <mxGeometry relative="1" as="geometry" />
        </mxCell>
        <mxCell id="N5E-a2_garC34fSIHxFX-1" value="AWS Elemental&lt;br&gt;MediaTailor" style="sketch=0;points=[[0,0,0],[0.25,0,0],[0.5,0,0],[0.75,0,0],[1,0,0],[0,1,0],[0.25,1,0],[0.5,1,0],[0.75,1,0],[1,1,0],[0,0.25,0],[0,0.5,0],[0,0.75,0],[1,0.25,0],[1,0.5,0],[1,0.75,0]];outlineConnect=0;fontColor=#232F3E;fillColor=#ED7100;strokeColor=#ffffff;dashed=0;verticalLabelPosition=bottom;verticalAlign=top;align=center;html=1;fontSize=12;fontStyle=0;aspect=fixed;shape=mxgraph.aws4.resourceIcon;resIcon=mxgraph.aws4.elemental_mediatailor;" parent="1" vertex="1">
          <mxGeometry x="655" y="263.89" width="78" height="78" as="geometry" />
        </mxCell>
        <mxCell id="N5E-a2_garC34fSIHxFX-3" style="edgeStyle=orthogonalEdgeStyle;rounded=0;orthogonalLoop=1;jettySize=auto;html=1;entryX=0;entryY=0.25;entryDx=0;entryDy=0;entryPerimeter=0;exitX=1;exitY=0.75;exitDx=0;exitDy=0;exitPerimeter=0;" parent="1" source="2nmGZ_M7Z3MYa-DBmGAj-24" target="N5E-a2_garC34fSIHxFX-1" edge="1">
          <mxGeometry relative="1" as="geometry" />
        </mxCell>
        <mxCell id="9FjImwvdv4YKPjKREEQP-5" value="Amazon Simple Notification Service" style="outlineConnect=0;gradientColor=none;html=1;whiteSpace=wrap;fontSize=12;fontStyle=0;strokeColor=#000614;fillColor=none;verticalAlign=top;align=center;fontColor=#879196;dashed=1;spacingTop=3;spacingLeft=25;" parent="1" vertex="1">
          <mxGeometry x="245" y="476.5" width="289.5" height="183.5" as="geometry" />
        </mxCell>
        <mxCell id="9FjImwvdv4YKPjKREEQP-2" value="Email Subscription" style="sketch=0;outlineConnect=0;fontColor=#232F3E;gradientColor=none;fillColor=#E7157B;strokeColor=none;dashed=0;verticalLabelPosition=bottom;verticalAlign=top;align=center;html=1;fontSize=12;fontStyle=0;aspect=fixed;pointerEvents=1;shape=mxgraph.aws4.email_notification;" parent="1" vertex="1">
          <mxGeometry x="414.75" y="530" width="78" height="78" as="geometry" />
        </mxCell>
        <mxCell id="9FjImwvdv4YKPjKREEQP-4" value="SNS Topic" style="sketch=0;outlineConnect=0;fontColor=#232F3E;gradientColor=none;fillColor=#E7157B;strokeColor=none;dashed=0;verticalLabelPosition=bottom;verticalAlign=top;align=center;html=1;fontSize=12;fontStyle=0;aspect=fixed;pointerEvents=1;shape=mxgraph.aws4.topic;" parent="1" vertex="1">
          <mxGeometry x="283" y="535.5" width="78" height="67" as="geometry" />
        </mxCell>
        <mxCell id="9FjImwvdv4YKPjKREEQP-1" value="" style="sketch=0;points=[[0,0,0],[0.25,0,0],[0.5,0,0],[0.75,0,0],[1,0,0],[0,1,0],[0.25,1,0],[0.5,1,0],[0.75,1,0],[1,1,0],[0,0.25,0],[0,0.5,0],[0,0.75,0],[1,0.25,0],[1,0.5,0],[1,0.75,0]];outlineConnect=0;fontColor=#232F3E;fillColor=#E7157B;strokeColor=#ffffff;dashed=0;verticalLabelPosition=bottom;verticalAlign=top;align=center;html=1;fontSize=12;fontStyle=0;aspect=fixed;shape=mxgraph.aws4.resourceIcon;resIcon=mxgraph.aws4.sns;" parent="1" vertex="1">
          <mxGeometry x="244" y="476.5" width="39" height="39" as="geometry" />
        </mxCell>
        <mxCell id="9FjImwvdv4YKPjKREEQP-42" value="On-Premise" style="sketch=0;outlineConnect=0;gradientColor=none;html=1;whiteSpace=wrap;fontSize=12;fontStyle=0;shape=mxgraph.aws4.group;grIcon=mxgraph.aws4.group_on_premise;strokeColor=#AAB7B8;fillColor=none;verticalAlign=top;align=left;spacingLeft=30;fontColor=#AAB7B8;dashed=0;" parent="1" vertex="1">
          <mxGeometry x="10" y="920" width="130" height="340" as="geometry" />
        </mxCell>
        <mxCell id="9FjImwvdv4YKPjKREEQP-41" value="AWS Elemental Live" style="sketch=0;points=[[0,0,0],[0.25,0,0],[0.5,0,0],[0.75,0,0],[1,0,0],[0,1,0],[0.25,1,0],[0.5,1,0],[0.75,1,0],[1,1,0],[0,0.25,0],[0,0.5,0],[0,0.75,0],[1,0.25,0],[1,0.5,0],[1,0.75,0]];outlineConnect=0;fontColor=#232F3E;fillColor=#ED7100;strokeColor=#ffffff;dashed=0;verticalLabelPosition=bottom;verticalAlign=top;align=center;html=1;fontSize=12;fontStyle=0;aspect=fixed;shape=mxgraph.aws4.resourceIcon;resIcon=mxgraph.aws4.elemental;" parent="1" vertex="1">
          <mxGeometry x="36" y="1090" width="78" height="78" as="geometry" />
        </mxCell>
        <mxCell id="9FjImwvdv4YKPjKREEQP-80" value="" style="rounded=0;whiteSpace=wrap;html=1;fillColor=#ffe6cc;strokeColor=#d79b00;" parent="1" vertex="1">
          <mxGeometry x="200" y="930" width="720" height="340" as="geometry" />
        </mxCell>
        <mxCell id="9FjImwvdv4YKPjKREEQP-88" value="devices" style="sketch=0;outlineConnect=0;gradientColor=none;fontColor=#545B64;strokeColor=none;fillColor=#879196;dashed=0;verticalLabelPosition=bottom;verticalAlign=top;align=center;html=1;fontSize=12;fontStyle=0;aspect=fixed;shape=mxgraph.aws4.illustration_devices;pointerEvents=1" parent="1" vertex="1">
          <mxGeometry x="970" y="1092.5" width="100" height="73" as="geometry" />
        </mxCell>
        <mxCell id="9FjImwvdv4YKPjKREEQP-90" value="" style="rounded=0;whiteSpace=wrap;html=1;fillColor=#ffe6cc;strokeColor=#d79b00;" parent="1" vertex="1">
          <mxGeometry x="190" y="920" width="720" height="340" as="geometry" />
        </mxCell>
        <mxCell id="9FjImwvdv4YKPjKREEQP-91" value="2. Event Group" style="rounded=1;whiteSpace=wrap;html=1;fillColor=#f5f5f5;fontColor=#333333;strokeColor=#666666;" parent="1" vertex="1">
          <mxGeometry x="424.5" y="924" width="110" height="30" as="geometry" />
        </mxCell>
        <mxCell id="9FjImwvdv4YKPjKREEQP-92" value="Amazon CloudFront&lt;br&gt;Distribution" style="sketch=0;points=[[0,0,0],[0.25,0,0],[0.5,0,0],[0.75,0,0],[1,0,0],[0,1,0],[0.25,1,0],[0.5,1,0],[0.75,1,0],[1,1,0],[0,0.25,0],[0,0.5,0],[0,0.75,0],[1,0.25,0],[1,0.5,0],[1,0.75,0]];outlineConnect=0;fontColor=#232F3E;fillColor=#8C4FFF;strokeColor=#ffffff;dashed=0;verticalLabelPosition=bottom;verticalAlign=top;align=center;html=1;fontSize=12;fontStyle=0;aspect=fixed;shape=mxgraph.aws4.resourceIcon;resIcon=mxgraph.aws4.cloudfront;" parent="1" vertex="1">
          <mxGeometry x="795" y="1090" width="78" height="78" as="geometry" />
        </mxCell>
        <mxCell id="9FjImwvdv4YKPjKREEQP-93" value="" style="sketch=0;outlineConnect=0;fontColor=#232F3E;gradientColor=none;fillColor=#E7157B;strokeColor=none;dashed=0;verticalLabelPosition=bottom;verticalAlign=top;align=center;html=1;fontSize=12;fontStyle=0;aspect=fixed;pointerEvents=1;shape=mxgraph.aws4.stack;" parent="1" vertex="1">
          <mxGeometry x="190" y="920" width="39" height="38" as="geometry" />
        </mxCell>
        <mxCell id="9FjImwvdv4YKPjKREEQP-94" value="AWS Elemental MediaPackage&lt;br&gt;Channel Group" style="outlineConnect=0;gradientColor=none;html=1;whiteSpace=wrap;fontSize=12;fontStyle=0;strokeColor=#000614;fillColor=none;verticalAlign=top;align=center;fontColor=#879196;dashed=1;spacingTop=3;spacingLeft=43;" parent="1" vertex="1">
          <mxGeometry x="380" y="975" width="237.75" height="270" as="geometry" />
        </mxCell>
        <mxCell id="9FjImwvdv4YKPjKREEQP-95" value="" style="sketch=0;points=[[0,0,0],[0.25,0,0],[0.5,0,0],[0.75,0,0],[1,0,0],[0,1,0],[0.25,1,0],[0.5,1,0],[0.75,1,0],[1,1,0],[0,0.25,0],[0,0.5,0],[0,0.75,0],[1,0.25,0],[1,0.5,0],[1,0.75,0]];outlineConnect=0;fontColor=#232F3E;fillColor=#ED7100;strokeColor=#ffffff;dashed=0;verticalLabelPosition=bottom;verticalAlign=top;align=center;html=1;fontSize=12;fontStyle=0;aspect=fixed;shape=mxgraph.aws4.resourceIcon;resIcon=mxgraph.aws4.elemental_mediapackage;" parent="1" vertex="1">
          <mxGeometry x="380" y="975" width="39" height="39" as="geometry" />
        </mxCell>
        <mxCell id="9FjImwvdv4YKPjKREEQP-96" value="" style="rounded=0;whiteSpace=wrap;html=1;fillColor=#dae8fc;strokeColor=#6c8ebf;" parent="1" vertex="1">
          <mxGeometry x="416" y="1059" width="190" height="180" as="geometry" />
        </mxCell>
        <mxCell id="9FjImwvdv4YKPjKREEQP-97" value="" style="rounded=0;whiteSpace=wrap;html=1;fillColor=#dae8fc;strokeColor=#6c8ebf;" parent="1" vertex="1">
          <mxGeometry x="406" y="1050" width="190" height="180" as="geometry" />
        </mxCell>
        <mxCell id="9FjImwvdv4YKPjKREEQP-106" style="edgeStyle=orthogonalEdgeStyle;rounded=0;orthogonalLoop=1;jettySize=auto;html=1;exitX=1;exitY=0.25;exitDx=0;exitDy=0;exitPerimeter=0;entryX=0;entryY=0.25;entryDx=0;entryDy=0;entryPerimeter=0;" parent="1" source="9FjImwvdv4YKPjKREEQP-103" target="9FjImwvdv4YKPjKREEQP-92" edge="1">
          <mxGeometry relative="1" as="geometry" />
        </mxCell>
        <mxCell id="9FjImwvdv4YKPjKREEQP-107" style="edgeStyle=orthogonalEdgeStyle;rounded=0;orthogonalLoop=1;jettySize=auto;html=1;" parent="1" source="9FjImwvdv4YKPjKREEQP-92" target="9FjImwvdv4YKPjKREEQP-88" edge="1">
          <mxGeometry relative="1" as="geometry">
            <mxPoint x="978" y="1129.5" as="targetPoint" />
          </mxGeometry>
        </mxCell>
        <mxCell id="9FjImwvdv4YKPjKREEQP-108" style="edgeStyle=orthogonalEdgeStyle;rounded=0;orthogonalLoop=1;jettySize=auto;html=1;entryX=0;entryY=0.75;entryDx=0;entryDy=0;entryPerimeter=0;exitX=1;exitY=0.25;exitDx=0;exitDy=0;exitPerimeter=0;" parent="1" source="9FjImwvdv4YKPjKREEQP-109" target="9FjImwvdv4YKPjKREEQP-92" edge="1">
          <mxGeometry relative="1" as="geometry" />
        </mxCell>
        <mxCell id="9FjImwvdv4YKPjKREEQP-109" value="AWS Elemental&lt;br&gt;MediaTailor" style="sketch=0;points=[[0,0,0],[0.25,0,0],[0.5,0,0],[0.75,0,0],[1,0,0],[0,1,0],[0.25,1,0],[0.5,1,0],[0.75,1,0],[1,1,0],[0,0.25,0],[0,0.5,0],[0,0.75,0],[1,0.25,0],[1,0.5,0],[1,0.75,0]];outlineConnect=0;fontColor=#232F3E;fillColor=#ED7100;strokeColor=#ffffff;dashed=0;verticalLabelPosition=bottom;verticalAlign=top;align=center;html=1;fontSize=12;fontStyle=0;aspect=fixed;shape=mxgraph.aws4.resourceIcon;resIcon=mxgraph.aws4.elemental_mediatailor;" parent="1" vertex="1">
          <mxGeometry x="655" y="1128.8899999999999" width="78" height="78" as="geometry" />
        </mxCell>
        <mxCell id="9FjImwvdv4YKPjKREEQP-110" style="edgeStyle=orthogonalEdgeStyle;rounded=0;orthogonalLoop=1;jettySize=auto;html=1;entryX=0;entryY=0.25;entryDx=0;entryDy=0;entryPerimeter=0;exitX=1;exitY=0.75;exitDx=0;exitDy=0;exitPerimeter=0;" parent="1" source="9FjImwvdv4YKPjKREEQP-103" target="9FjImwvdv4YKPjKREEQP-109" edge="1">
          <mxGeometry relative="1" as="geometry" />
        </mxCell>
        <mxCell id="9FjImwvdv4YKPjKREEQP-99" value="" style="sketch=0;points=[[0,0,0],[0.25,0,0],[0.5,0,0],[0.75,0,0],[1,0,0],[0,1,0],[0.25,1,0],[0.5,1,0],[0.75,1,0],[1,1,0],[0,0.25,0],[0,0.5,0],[0,0.75,0],[1,0.25,0],[1,0.5,0],[1,0.75,0]];outlineConnect=0;fontColor=#232F3E;fillColor=#8C4FFF;strokeColor=#ffffff;dashed=0;verticalLabelPosition=bottom;verticalAlign=top;align=center;html=1;fontSize=12;fontStyle=0;aspect=fixed;shape=mxgraph.aws4.resourceIcon;resIcon=mxgraph.aws4.cloudfront;" parent="1" vertex="1">
          <mxGeometry x="497" y="1096.8616758502756" width="39" height="39" as="geometry" />
        </mxCell>
        <mxCell id="9FjImwvdv4YKPjKREEQP-100" value="" style="rounded=0;whiteSpace=wrap;html=1;fillColor=#dae8fc;strokeColor=#6c8ebf;" parent="1" vertex="1">
          <mxGeometry x="396" y="1041" width="190" height="180" as="geometry" />
        </mxCell>
        <mxCell id="9FjImwvdv4YKPjKREEQP-101" value="" style="sketch=0;outlineConnect=0;fontColor=#232F3E;gradientColor=none;fillColor=#E7157B;strokeColor=none;dashed=0;verticalLabelPosition=bottom;verticalAlign=top;align=center;html=1;fontSize=12;fontStyle=0;aspect=fixed;pointerEvents=1;shape=mxgraph.aws4.stack;" parent="1" vertex="1">
          <mxGeometry x="396" y="1041" width="39" height="38" as="geometry" />
        </mxCell>
        <mxCell id="9FjImwvdv4YKPjKREEQP-103" value="AWS Elemental&lt;br&gt;MediaPackage&lt;br&gt;Channel" style="sketch=0;points=[[0,0,0],[0.25,0,0],[0.5,0,0],[0.75,0,0],[1,0,0],[0,1,0],[0.25,1,0],[0.5,1,0],[0.75,1,0],[1,1,0],[0,0.25,0],[0,0.5,0],[0,0.75,0],[1,0.25,0],[1,0.5,0],[1,0.75,0]];outlineConnect=0;fontColor=#232F3E;fillColor=#ED7100;strokeColor=#ffffff;dashed=0;verticalLabelPosition=bottom;verticalAlign=top;align=center;html=1;fontSize=12;fontStyle=0;aspect=fixed;shape=mxgraph.aws4.resourceIcon;resIcon=mxgraph.aws4.elemental_mediapackage;" parent="1" vertex="1">
          <mxGeometry x="467" y="1090.0214706441193" width="78" height="78" as="geometry" />
        </mxCell>
        <mxCell id="9FjImwvdv4YKPjKREEQP-105" value="3. Event" style="rounded=1;whiteSpace=wrap;html=1;fillColor=#f5f5f5;fontColor=#333333;strokeColor=#666666;" parent="1" vertex="1">
          <mxGeometry x="461" y="1044.7249117473525" width="110" height="34.20102603078093" as="geometry" />
        </mxCell>
        <mxCell id="9FjImwvdv4YKPjKREEQP-115" style="edgeStyle=orthogonalEdgeStyle;rounded=0;orthogonalLoop=1;jettySize=auto;html=1;" parent="1" source="9FjImwvdv4YKPjKREEQP-41" target="9FjImwvdv4YKPjKREEQP-103" edge="1">
          <mxGeometry relative="1" as="geometry" />
        </mxCell>
        <mxCell id="3YXlD9nhbQdS337FwNxT-1" value="" style="rounded=0;whiteSpace=wrap;html=1;fillColor=#e1d5e7;strokeColor=#9673a6;" parent="1" vertex="1">
          <mxGeometry x="190" y="1284" width="720" height="381" as="geometry" />
        </mxCell>
        <mxCell id="3YXlD9nhbQdS337FwNxT-2" value="1. Foundation" style="rounded=1;whiteSpace=wrap;html=1;fillColor=#f5f5f5;fontColor=#333333;strokeColor=#666666;" parent="1" vertex="1">
          <mxGeometry x="424.5" y="1288" width="110" height="30" as="geometry" />
        </mxCell>
        <mxCell id="3YXlD9nhbQdS337FwNxT-3" value="Amazon CloudFront Resources" style="outlineConnect=0;gradientColor=none;html=1;whiteSpace=wrap;fontSize=12;fontStyle=0;strokeColor=#000614;fillColor=none;verticalAlign=top;align=center;fontColor=#879196;dashed=1;spacingTop=3;spacingLeft=25;" parent="1" vertex="1">
          <mxGeometry x="560" y="1341.5" width="289.5" height="183.5" as="geometry" />
        </mxCell>
        <mxCell id="3YXlD9nhbQdS337FwNxT-4" value="&lt;div&gt;- MediaTailor Manifest Origin Request Policy&lt;/div&gt;&lt;div&gt;- MediaTailor Ad Redirect Origin Request Policy&lt;/div&gt;&lt;div&gt;&lt;div&gt;- MediaPackage Manifest Cache Policy&lt;/div&gt;&lt;/div&gt;&lt;div&gt;- Post Response Headers Policy&lt;/div&gt;&lt;div&gt;- Default Response Header Policy&lt;br&gt;&lt;/div&gt;&lt;div&gt;&lt;br&gt;&lt;/div&gt;" style="rounded=0;whiteSpace=wrap;html=1;verticalAlign=top;align=left;fillColor=none;strokeColor=none;" parent="1" vertex="1">
          <mxGeometry x="570" y="1383.5" width="279.5" height="142.5" as="geometry" />
        </mxCell>
        <mxCell id="3YXlD9nhbQdS337FwNxT-5" value="S3 Log Bucket" style="sketch=0;outlineConnect=0;fontColor=#232F3E;gradientColor=none;fillColor=#7AA116;strokeColor=none;dashed=0;verticalLabelPosition=bottom;verticalAlign=top;align=center;html=1;fontSize=12;fontStyle=0;aspect=fixed;pointerEvents=1;shape=mxgraph.aws4.bucket;" parent="1" vertex="1">
          <mxGeometry x="416.25" y="1546" width="75" height="78" as="geometry" />
        </mxCell>
        <mxCell id="3YXlD9nhbQdS337FwNxT-6" value="MediaLiveAccessRole" style="sketch=0;outlineConnect=0;fontColor=#232F3E;gradientColor=none;fillColor=#DD344C;strokeColor=none;dashed=0;verticalLabelPosition=bottom;verticalAlign=top;align=center;html=1;fontSize=12;fontStyle=0;aspect=fixed;pointerEvents=1;shape=mxgraph.aws4.role;" parent="1" vertex="1">
          <mxGeometry x="283" y="1563" width="78" height="44" as="geometry" />
        </mxCell>
        <mxCell id="3YXlD9nhbQdS337FwNxT-7" value="" style="sketch=0;outlineConnect=0;fontColor=#232F3E;gradientColor=none;fillColor=#E7157B;strokeColor=none;dashed=0;verticalLabelPosition=bottom;verticalAlign=top;align=center;html=1;fontSize=12;fontStyle=0;aspect=fixed;pointerEvents=1;shape=mxgraph.aws4.stack;" parent="1" vertex="1">
          <mxGeometry x="190" y="1284" width="39" height="38" as="geometry" />
        </mxCell>
        <mxCell id="3YXlD9nhbQdS337FwNxT-8" value="" style="sketch=0;points=[[0,0,0],[0.25,0,0],[0.5,0,0],[0.75,0,0],[1,0,0],[0,1,0],[0.25,1,0],[0.5,1,0],[0.75,1,0],[1,1,0],[0,0.25,0],[0,0.5,0],[0,0.75,0],[1,0.25,0],[1,0.5,0],[1,0.75,0]];outlineConnect=0;fontColor=#232F3E;fillColor=#8C4FFF;strokeColor=#ffffff;dashed=0;verticalLabelPosition=bottom;verticalAlign=top;align=center;html=1;fontSize=12;fontStyle=0;aspect=fixed;shape=mxgraph.aws4.resourceIcon;resIcon=mxgraph.aws4.cloudfront;" parent="1" vertex="1">
          <mxGeometry x="560" y="1341.5" width="39" height="39" as="geometry" />
        </mxCell>
        <mxCell id="3YXlD9nhbQdS337FwNxT-9" value="Amazon Simple Notification Service" style="outlineConnect=0;gradientColor=none;html=1;whiteSpace=wrap;fontSize=12;fontStyle=0;strokeColor=#000614;fillColor=none;verticalAlign=top;align=center;fontColor=#879196;dashed=1;spacingTop=3;spacingLeft=25;" parent="1" vertex="1">
          <mxGeometry x="245" y="1341.5" width="289.5" height="183.5" as="geometry" />
        </mxCell>
        <mxCell id="3YXlD9nhbQdS337FwNxT-10" value="Email Subscription" style="sketch=0;outlineConnect=0;fontColor=#232F3E;gradientColor=none;fillColor=#E7157B;strokeColor=none;dashed=0;verticalLabelPosition=bottom;verticalAlign=top;align=center;html=1;fontSize=12;fontStyle=0;aspect=fixed;pointerEvents=1;shape=mxgraph.aws4.email_notification;" parent="1" vertex="1">
          <mxGeometry x="414.75" y="1395" width="78" height="78" as="geometry" />
        </mxCell>
        <mxCell id="3YXlD9nhbQdS337FwNxT-11" value="SNS Topic" style="sketch=0;outlineConnect=0;fontColor=#232F3E;gradientColor=none;fillColor=#E7157B;strokeColor=none;dashed=0;verticalLabelPosition=bottom;verticalAlign=top;align=center;html=1;fontSize=12;fontStyle=0;aspect=fixed;pointerEvents=1;shape=mxgraph.aws4.topic;" parent="1" vertex="1">
          <mxGeometry x="283" y="1400.5" width="78" height="67" as="geometry" />
        </mxCell>
        <mxCell id="3YXlD9nhbQdS337FwNxT-12" value="" style="sketch=0;points=[[0,0,0],[0.25,0,0],[0.5,0,0],[0.75,0,0],[1,0,0],[0,1,0],[0.25,1,0],[0.5,1,0],[0.75,1,0],[1,1,0],[0,0.25,0],[0,0.5,0],[0,0.75,0],[1,0.25,0],[1,0.5,0],[1,0.75,0]];outlineConnect=0;fontColor=#232F3E;fillColor=#E7157B;strokeColor=#ffffff;dashed=0;verticalLabelPosition=bottom;verticalAlign=top;align=center;html=1;fontSize=12;fontStyle=0;aspect=fixed;shape=mxgraph.aws4.resourceIcon;resIcon=mxgraph.aws4.sns;" parent="1" vertex="1">
          <mxGeometry x="244" y="1341.5" width="39" height="39" as="geometry" />
        </mxCell>
        <mxCell id="CVeHy0SKlbT3xbjEbbty-1" value="On-Premise" style="sketch=0;outlineConnect=0;gradientColor=none;html=1;whiteSpace=wrap;fontSize=12;fontStyle=0;shape=mxgraph.aws4.group;grIcon=mxgraph.aws4.group_on_premise;strokeColor=#AAB7B8;fillColor=none;verticalAlign=top;align=left;spacingLeft=30;fontColor=#AAB7B8;dashed=0;" parent="1" vertex="1">
          <mxGeometry x="30" y="1750" width="130" height="340" as="geometry" />
        </mxCell>
        <mxCell id="CVeHy0SKlbT3xbjEbbty-3" value="" style="rounded=0;whiteSpace=wrap;html=1;fillColor=#ffe6cc;strokeColor=#d79b00;" parent="1" vertex="1">
          <mxGeometry x="220" y="1760" width="720" height="340" as="geometry" />
        </mxCell>
        <mxCell id="CVeHy0SKlbT3xbjEbbty-4" value="devices" style="sketch=0;outlineConnect=0;gradientColor=none;fontColor=#545B64;strokeColor=none;fillColor=#879196;dashed=0;verticalLabelPosition=bottom;verticalAlign=top;align=center;html=1;fontSize=12;fontStyle=0;aspect=fixed;shape=mxgraph.aws4.illustration_devices;pointerEvents=1" parent="1" vertex="1">
          <mxGeometry x="990" y="1922.5" width="100" height="73" as="geometry" />
        </mxCell>
        <mxCell id="CVeHy0SKlbT3xbjEbbty-5" value="" style="rounded=0;whiteSpace=wrap;html=1;fillColor=#ffe6cc;strokeColor=#d79b00;" parent="1" vertex="1">
          <mxGeometry x="210" y="1750" width="720" height="340" as="geometry" />
        </mxCell>
        <mxCell id="CVeHy0SKlbT3xbjEbbty-6" value="2. Event Group" style="rounded=1;whiteSpace=wrap;html=1;fillColor=#f5f5f5;fontColor=#333333;strokeColor=#666666;" parent="1" vertex="1">
          <mxGeometry x="444.5" y="1754" width="110" height="30" as="geometry" />
        </mxCell>
        <mxCell id="CVeHy0SKlbT3xbjEbbty-7" value="Amazon CloudFront&lt;br&gt;Distribution" style="sketch=0;points=[[0,0,0],[0.25,0,0],[0.5,0,0],[0.75,0,0],[1,0,0],[0,1,0],[0.25,1,0],[0.5,1,0],[0.75,1,0],[1,1,0],[0,0.25,0],[0,0.5,0],[0,0.75,0],[1,0.25,0],[1,0.5,0],[1,0.75,0]];outlineConnect=0;fontColor=#232F3E;fillColor=#8C4FFF;strokeColor=#ffffff;dashed=0;verticalLabelPosition=bottom;verticalAlign=top;align=center;html=1;fontSize=12;fontStyle=0;aspect=fixed;shape=mxgraph.aws4.resourceIcon;resIcon=mxgraph.aws4.cloudfront;" parent="1" vertex="1">
          <mxGeometry x="815" y="1920" width="78" height="78" as="geometry" />
        </mxCell>
        <mxCell id="CVeHy0SKlbT3xbjEbbty-8" value="" style="sketch=0;outlineConnect=0;fontColor=#232F3E;gradientColor=none;fillColor=#E7157B;strokeColor=none;dashed=0;verticalLabelPosition=bottom;verticalAlign=top;align=center;html=1;fontSize=12;fontStyle=0;aspect=fixed;pointerEvents=1;shape=mxgraph.aws4.stack;" parent="1" vertex="1">
          <mxGeometry x="210" y="1750" width="39" height="38" as="geometry" />
        </mxCell>
        <mxCell id="CVeHy0SKlbT3xbjEbbty-9" value="AWS Elemental MediaPackage&lt;br&gt;Channel Group" style="outlineConnect=0;gradientColor=none;html=1;whiteSpace=wrap;fontSize=12;fontStyle=0;strokeColor=#000614;fillColor=none;verticalAlign=top;align=center;fontColor=#879196;dashed=1;spacingTop=3;spacingLeft=43;" parent="1" vertex="1">
          <mxGeometry x="400" y="1805" width="237.75" height="270" as="geometry" />
        </mxCell>
        <mxCell id="CVeHy0SKlbT3xbjEbbty-10" value="" style="sketch=0;points=[[0,0,0],[0.25,0,0],[0.5,0,0],[0.75,0,0],[1,0,0],[0,1,0],[0.25,1,0],[0.5,1,0],[0.75,1,0],[1,1,0],[0,0.25,0],[0,0.5,0],[0,0.75,0],[1,0.25,0],[1,0.5,0],[1,0.75,0]];outlineConnect=0;fontColor=#232F3E;fillColor=#ED7100;strokeColor=#ffffff;dashed=0;verticalLabelPosition=bottom;verticalAlign=top;align=center;html=1;fontSize=12;fontStyle=0;aspect=fixed;shape=mxgraph.aws4.resourceIcon;resIcon=mxgraph.aws4.elemental_mediapackage;" parent="1" vertex="1">
          <mxGeometry x="400" y="1805" width="39" height="39" as="geometry" />
        </mxCell>
        <mxCell id="CVeHy0SKlbT3xbjEbbty-11" value="" style="rounded=0;whiteSpace=wrap;html=1;fillColor=#dae8fc;strokeColor=#6c8ebf;" parent="1" vertex="1">
          <mxGeometry x="436" y="1889" width="190" height="180" as="geometry" />
        </mxCell>
        <mxCell id="CVeHy0SKlbT3xbjEbbty-12" value="" style="rounded=0;whiteSpace=wrap;html=1;fillColor=#dae8fc;strokeColor=#6c8ebf;" parent="1" vertex="1">
          <mxGeometry x="426" y="1880" width="190" height="180" as="geometry" />
        </mxCell>
        <mxCell id="CVeHy0SKlbT3xbjEbbty-13" style="edgeStyle=orthogonalEdgeStyle;rounded=0;orthogonalLoop=1;jettySize=auto;html=1;exitX=1;exitY=0.25;exitDx=0;exitDy=0;exitPerimeter=0;entryX=0;entryY=0.25;entryDx=0;entryDy=0;entryPerimeter=0;" parent="1" source="CVeHy0SKlbT3xbjEbbty-21" target="CVeHy0SKlbT3xbjEbbty-7" edge="1">
          <mxGeometry relative="1" as="geometry" />
        </mxCell>
        <mxCell id="CVeHy0SKlbT3xbjEbbty-14" style="edgeStyle=orthogonalEdgeStyle;rounded=0;orthogonalLoop=1;jettySize=auto;html=1;" parent="1" source="CVeHy0SKlbT3xbjEbbty-7" target="CVeHy0SKlbT3xbjEbbty-4" edge="1">
          <mxGeometry relative="1" as="geometry">
            <mxPoint x="998" y="1959.5" as="targetPoint" />
          </mxGeometry>
        </mxCell>
        <mxCell id="CVeHy0SKlbT3xbjEbbty-15" style="edgeStyle=orthogonalEdgeStyle;rounded=0;orthogonalLoop=1;jettySize=auto;html=1;entryX=0;entryY=0.75;entryDx=0;entryDy=0;entryPerimeter=0;exitX=1;exitY=0.25;exitDx=0;exitDy=0;exitPerimeter=0;" parent="1" source="CVeHy0SKlbT3xbjEbbty-16" target="CVeHy0SKlbT3xbjEbbty-7" edge="1">
          <mxGeometry relative="1" as="geometry" />
        </mxCell>
        <mxCell id="CVeHy0SKlbT3xbjEbbty-16" value="AWS Elemental&lt;br&gt;MediaTailor" style="sketch=0;points=[[0,0,0],[0.25,0,0],[0.5,0,0],[0.75,0,0],[1,0,0],[0,1,0],[0.25,1,0],[0.5,1,0],[0.75,1,0],[1,1,0],[0,0.25,0],[0,0.5,0],[0,0.75,0],[1,0.25,0],[1,0.5,0],[1,0.75,0]];outlineConnect=0;fontColor=#232F3E;fillColor=#ED7100;strokeColor=#ffffff;dashed=0;verticalLabelPosition=bottom;verticalAlign=top;align=center;html=1;fontSize=12;fontStyle=0;aspect=fixed;shape=mxgraph.aws4.resourceIcon;resIcon=mxgraph.aws4.elemental_mediatailor;" parent="1" vertex="1">
          <mxGeometry x="675" y="1958.8899999999999" width="78" height="78" as="geometry" />
        </mxCell>
        <mxCell id="CVeHy0SKlbT3xbjEbbty-17" style="edgeStyle=orthogonalEdgeStyle;rounded=0;orthogonalLoop=1;jettySize=auto;html=1;entryX=0;entryY=0.25;entryDx=0;entryDy=0;entryPerimeter=0;exitX=1;exitY=0.75;exitDx=0;exitDy=0;exitPerimeter=0;" parent="1" source="CVeHy0SKlbT3xbjEbbty-21" target="CVeHy0SKlbT3xbjEbbty-16" edge="1">
          <mxGeometry relative="1" as="geometry" />
        </mxCell>
        <mxCell id="CVeHy0SKlbT3xbjEbbty-18" value="" style="sketch=0;points=[[0,0,0],[0.25,0,0],[0.5,0,0],[0.75,0,0],[1,0,0],[0,1,0],[0.25,1,0],[0.5,1,0],[0.75,1,0],[1,1,0],[0,0.25,0],[0,0.5,0],[0,0.75,0],[1,0.25,0],[1,0.5,0],[1,0.75,0]];outlineConnect=0;fontColor=#232F3E;fillColor=#8C4FFF;strokeColor=#ffffff;dashed=0;verticalLabelPosition=bottom;verticalAlign=top;align=center;html=1;fontSize=12;fontStyle=0;aspect=fixed;shape=mxgraph.aws4.resourceIcon;resIcon=mxgraph.aws4.cloudfront;" parent="1" vertex="1">
          <mxGeometry x="517" y="1926.8616758502756" width="39" height="39" as="geometry" />
        </mxCell>
        <mxCell id="CVeHy0SKlbT3xbjEbbty-19" value="" style="rounded=0;whiteSpace=wrap;html=1;fillColor=#dae8fc;strokeColor=#6c8ebf;" parent="1" vertex="1">
          <mxGeometry x="416" y="1871" width="190" height="180" as="geometry" />
        </mxCell>
        <mxCell id="CVeHy0SKlbT3xbjEbbty-20" value="" style="sketch=0;outlineConnect=0;fontColor=#232F3E;gradientColor=none;fillColor=#E7157B;strokeColor=none;dashed=0;verticalLabelPosition=bottom;verticalAlign=top;align=center;html=1;fontSize=12;fontStyle=0;aspect=fixed;pointerEvents=1;shape=mxgraph.aws4.stack;" parent="1" vertex="1">
          <mxGeometry x="416" y="1871" width="39" height="38" as="geometry" />
        </mxCell>
        <mxCell id="CVeHy0SKlbT3xbjEbbty-21" value="AWS Elemental&lt;br&gt;MediaPackage&lt;br&gt;Channel" style="sketch=0;points=[[0,0,0],[0.25,0,0],[0.5,0,0],[0.75,0,0],[1,0,0],[0,1,0],[0.25,1,0],[0.5,1,0],[0.75,1,0],[1,1,0],[0,0.25,0],[0,0.5,0],[0,0.75,0],[1,0.25,0],[1,0.5,0],[1,0.75,0]];outlineConnect=0;fontColor=#232F3E;fillColor=#ED7100;strokeColor=#ffffff;dashed=0;verticalLabelPosition=bottom;verticalAlign=top;align=center;html=1;fontSize=12;fontStyle=0;aspect=fixed;shape=mxgraph.aws4.resourceIcon;resIcon=mxgraph.aws4.elemental_mediapackage;" parent="1" vertex="1">
          <mxGeometry x="487" y="1920.0214706441193" width="78" height="78" as="geometry" />
        </mxCell>
        <mxCell id="CVeHy0SKlbT3xbjEbbty-22" value="3. Event" style="rounded=1;whiteSpace=wrap;html=1;fillColor=#f5f5f5;fontColor=#333333;strokeColor=#666666;" parent="1" vertex="1">
          <mxGeometry x="481" y="1874.7249117473525" width="110" height="34.20102603078093" as="geometry" />
        </mxCell>
        <mxCell id="CVeHy0SKlbT3xbjEbbty-23" style="edgeStyle=orthogonalEdgeStyle;rounded=0;orthogonalLoop=1;jettySize=auto;html=1;exitX=1;exitY=0.5;exitDx=0;exitDy=0;exitPerimeter=0;" parent="1" source="CVeHy0SKlbT3xbjEbbty-36" target="CVeHy0SKlbT3xbjEbbty-21" edge="1">
          <mxGeometry relative="1" as="geometry">
            <mxPoint x="133.99999999999977" y="1959" as="sourcePoint" />
          </mxGeometry>
        </mxCell>
        <mxCell id="CVeHy0SKlbT3xbjEbbty-24" value="" style="rounded=0;whiteSpace=wrap;html=1;fillColor=#e1d5e7;strokeColor=#9673a6;" parent="1" vertex="1">
          <mxGeometry x="210" y="2114" width="720" height="381" as="geometry" />
        </mxCell>
        <mxCell id="CVeHy0SKlbT3xbjEbbty-25" value="1. Foundation" style="rounded=1;whiteSpace=wrap;html=1;fillColor=#f5f5f5;fontColor=#333333;strokeColor=#666666;" parent="1" vertex="1">
          <mxGeometry x="444.5" y="2118" width="110" height="30" as="geometry" />
        </mxCell>
        <mxCell id="CVeHy0SKlbT3xbjEbbty-26" value="Amazon CloudFront Resources" style="outlineConnect=0;gradientColor=none;html=1;whiteSpace=wrap;fontSize=12;fontStyle=0;strokeColor=#000614;fillColor=none;verticalAlign=top;align=center;fontColor=#879196;dashed=1;spacingTop=3;spacingLeft=25;" parent="1" vertex="1">
          <mxGeometry x="580" y="2171.5" width="289.5" height="183.5" as="geometry" />
        </mxCell>
        <mxCell id="CVeHy0SKlbT3xbjEbbty-27" value="&lt;div&gt;- MediaTailor Manifest Origin Request Policy&lt;/div&gt;&lt;div&gt;- MediaTailor Ad Redirect Origin Request Policy&lt;/div&gt;&lt;div&gt;&lt;div&gt;- MediaPackage Manifest Cache Policy&lt;/div&gt;&lt;/div&gt;&lt;div&gt;- Post Response Headers Policy&lt;/div&gt;&lt;div&gt;- Default Response Header Policy&lt;br&gt;&lt;/div&gt;&lt;div&gt;&lt;br&gt;&lt;/div&gt;" style="rounded=0;whiteSpace=wrap;html=1;verticalAlign=top;align=left;fillColor=none;strokeColor=none;" parent="1" vertex="1">
          <mxGeometry x="590" y="2213.5" width="279.5" height="142.5" as="geometry" />
        </mxCell>
        <mxCell id="CVeHy0SKlbT3xbjEbbty-28" value="S3 Log Bucket" style="sketch=0;outlineConnect=0;fontColor=#232F3E;gradientColor=none;fillColor=#7AA116;strokeColor=none;dashed=0;verticalLabelPosition=bottom;verticalAlign=top;align=center;html=1;fontSize=12;fontStyle=0;aspect=fixed;pointerEvents=1;shape=mxgraph.aws4.bucket;" parent="1" vertex="1">
          <mxGeometry x="436.25" y="2376" width="75" height="78" as="geometry" />
        </mxCell>
        <mxCell id="CVeHy0SKlbT3xbjEbbty-29" value="MediaLiveAccessRole" style="sketch=0;outlineConnect=0;fontColor=#232F3E;gradientColor=none;fillColor=#DD344C;strokeColor=none;dashed=0;verticalLabelPosition=bottom;verticalAlign=top;align=center;html=1;fontSize=12;fontStyle=0;aspect=fixed;pointerEvents=1;shape=mxgraph.aws4.role;" parent="1" vertex="1">
          <mxGeometry x="303" y="2393" width="78" height="44" as="geometry" />
        </mxCell>
        <mxCell id="CVeHy0SKlbT3xbjEbbty-30" value="" style="sketch=0;outlineConnect=0;fontColor=#232F3E;gradientColor=none;fillColor=#E7157B;strokeColor=none;dashed=0;verticalLabelPosition=bottom;verticalAlign=top;align=center;html=1;fontSize=12;fontStyle=0;aspect=fixed;pointerEvents=1;shape=mxgraph.aws4.stack;" parent="1" vertex="1">
          <mxGeometry x="210" y="2114" width="39" height="38" as="geometry" />
        </mxCell>
        <mxCell id="CVeHy0SKlbT3xbjEbbty-31" value="" style="sketch=0;points=[[0,0,0],[0.25,0,0],[0.5,0,0],[0.75,0,0],[1,0,0],[0,1,0],[0.25,1,0],[0.5,1,0],[0.75,1,0],[1,1,0],[0,0.25,0],[0,0.5,0],[0,0.75,0],[1,0.25,0],[1,0.5,0],[1,0.75,0]];outlineConnect=0;fontColor=#232F3E;fillColor=#8C4FFF;strokeColor=#ffffff;dashed=0;verticalLabelPosition=bottom;verticalAlign=top;align=center;html=1;fontSize=12;fontStyle=0;aspect=fixed;shape=mxgraph.aws4.resourceIcon;resIcon=mxgraph.aws4.cloudfront;" parent="1" vertex="1">
          <mxGeometry x="580" y="2171.5" width="39" height="39" as="geometry" />
        </mxCell>
        <mxCell id="CVeHy0SKlbT3xbjEbbty-32" value="Amazon Simple Notification Service" style="outlineConnect=0;gradientColor=none;html=1;whiteSpace=wrap;fontSize=12;fontStyle=0;strokeColor=#000614;fillColor=none;verticalAlign=top;align=center;fontColor=#879196;dashed=1;spacingTop=3;spacingLeft=25;" parent="1" vertex="1">
          <mxGeometry x="265" y="2171.5" width="289.5" height="183.5" as="geometry" />
        </mxCell>
        <mxCell id="CVeHy0SKlbT3xbjEbbty-33" value="Email Subscription" style="sketch=0;outlineConnect=0;fontColor=#232F3E;gradientColor=none;fillColor=#E7157B;strokeColor=none;dashed=0;verticalLabelPosition=bottom;verticalAlign=top;align=center;html=1;fontSize=12;fontStyle=0;aspect=fixed;pointerEvents=1;shape=mxgraph.aws4.email_notification;" parent="1" vertex="1">
          <mxGeometry x="434.75" y="2225" width="78" height="78" as="geometry" />
        </mxCell>
        <mxCell id="CVeHy0SKlbT3xbjEbbty-34" value="SNS Topic" style="sketch=0;outlineConnect=0;fontColor=#232F3E;gradientColor=none;fillColor=#E7157B;strokeColor=none;dashed=0;verticalLabelPosition=bottom;verticalAlign=top;align=center;html=1;fontSize=12;fontStyle=0;aspect=fixed;pointerEvents=1;shape=mxgraph.aws4.topic;" parent="1" vertex="1">
          <mxGeometry x="303" y="2230.5" width="78" height="67" as="geometry" />
        </mxCell>
        <mxCell id="CVeHy0SKlbT3xbjEbbty-35" value="" style="sketch=0;points=[[0,0,0],[0.25,0,0],[0.5,0,0],[0.75,0,0],[1,0,0],[0,1,0],[0.25,1,0],[0.5,1,0],[0.75,1,0],[1,1,0],[0,0.25,0],[0,0.5,0],[0,0.75,0],[1,0.25,0],[1,0.5,0],[1,0.75,0]];outlineConnect=0;fontColor=#232F3E;fillColor=#E7157B;strokeColor=#ffffff;dashed=0;verticalLabelPosition=bottom;verticalAlign=top;align=center;html=1;fontSize=12;fontStyle=0;aspect=fixed;shape=mxgraph.aws4.resourceIcon;resIcon=mxgraph.aws4.sns;" parent="1" vertex="1">
          <mxGeometry x="264" y="2171.5" width="39" height="39" as="geometry" />
        </mxCell>
        <mxCell id="CVeHy0SKlbT3xbjEbbty-36" value="AWS Elemental&lt;br&gt;MediaLive Anywhere" style="sketch=0;points=[[0,0,0],[0.25,0,0],[0.5,0,0],[0.75,0,0],[1,0,0],[0,1,0],[0.25,1,0],[0.5,1,0],[0.75,1,0],[1,1,0],[0,0.25,0],[0,0.5,0],[0,0.75,0],[1,0.25,0],[1,0.5,0],[1,0.75,0]];outlineConnect=0;fontColor=#232F3E;fillColor=#ED7100;strokeColor=#ffffff;dashed=0;verticalLabelPosition=bottom;verticalAlign=top;align=center;html=1;fontSize=12;fontStyle=0;aspect=fixed;shape=mxgraph.aws4.resourceIcon;resIcon=mxgraph.aws4.elemental_medialive;" parent="1" vertex="1">
          <mxGeometry x="56" y="1919.4999999999998" width="78" height="78" as="geometry" />
        </mxCell>
      </root>
    </mxGraphModel>
  </diagram>
</mxfile>
